<?xml version="1.0" standalone="no"?>
<!DOCTYPE svg PUBLIC "-//W3C//DTD SVG 20010904//EN"
 "http://www.w3.org/TR/2001/REC-SVG-20010904/DTD/svg10.dtd">
<svg version="1.0" xmlns="http://www.w3.org/2000/svg"
 width="154.000000pt" height="58.000000pt" viewBox="0 0 154.000000 58.000000"
 preserveAspectRatio="xMidYMid meet">

<g transform="translate(0.000000,58.000000) scale(0.100000,-0.100000)"
fill="#000000" stroke="none">
<path d="M308 473 c12 -2 32 -2 45 0 12 2 2 4 -23 4 -25 0 -35 -2 -22 -4z"/>
<path d="M821 437 c-17 -21 -3 -49 23 -45 15 2 21 10 21 28 0 28 -26 38 -44
17z"/>
<path d="M590 325 l0 -115 25 0 c23 0 24 3 27 68 l3 67 40 -67 c33 -58 43 -68
67 -68 l28 0 0 115 0 115 -25 0 c-24 0 -25 -2 -25 -67 -1 -66 -1 -67 -18 -47
-9 12 -29 42 -44 68 -21 35 -33 46 -53 46 l-25 0 0 -115z"/>
<path d="M195 410 c3 -5 8 -10 11 -10 2 0 4 5 4 10 0 6 -5 10 -11 10 -5 0 -7
-4 -4 -10z"/>
<path d="M159 393 c-13 -16 -12 -17 4 -4 9 7 17 15 17 17 0 8 -8 3 -21 -13z"/>
<path d="M266 333 c-10 -32 -21 -64 -24 -71 -3 -10 2 -13 18 -10 18 2 27 14
38 46 17 51 36 44 36 -13 0 -30 3 -35 20 -33 14 2 25 21 42 71 22 64 22 67 4
67 -11 0 -25 -10 -31 -22 l-12 -22 -8 22 c-6 16 -17 22 -37 22 -26 0 -30 -5
-46 -57z"/>
<path d="M142 345 c0 -16 2 -22 5 -12 2 9 2 23 0 30 -3 6 -5 -1 -5 -18z"/>
<path d="M817 363 c-4 -3 -7 -39 -7 -80 l0 -73 30 0 30 0 0 80 c0 77 -1 80
-23 80 -13 0 -27 -3 -30 -7z"/>
<path d="M903 358 c3 -7 17 -41 32 -75 29 -67 28 -93 -5 -93 -16 0 -21 -5 -18
-22 4 -27 52 -37 81 -16 13 10 97 195 97 215 0 2 -13 3 -29 3 -27 0 -31 -5
-47 -52 l-17 -53 -24 53 c-19 44 -27 52 -49 52 -17 0 -24 -4 -21 -12z"/>
<path d="M1105 345 c-32 -31 -32 -75 -1 -112 20 -23 32 -28 69 -28 59 0 97 33
97 82 0 51 -37 83 -95 83 -35 0 -52 -6 -70 -25z m95 -29 c6 -8 10 -25 8 -38
-2 -18 -9 -23 -33 -23 -24 0 -31 5 -33 23 -6 42 33 68 58 38z"/>
<path d="M475 301 c-4 -13 -4 -25 -1 -28 3 -4 6 2 6 13 0 16 2 17 10 4 5 -8
10 -10 10 -5 0 6 -4 16 -9 24 -7 11 -10 9 -16 -8z"/>
<path d="M182 260 c7 -10 14 -18 15 -16 6 6 -9 36 -18 36 -5 0 -4 -9 3 -20z"/>
<path d="M473 213 c-12 -13 -19 -23 -14 -23 10 0 46 39 40 43 -2 2 -14 -7 -26
-20z"/>
<path d="M210 216 c0 -2 8 -10 18 -17 15 -13 16 -12 3 4 -13 16 -21 21 -21 13z"/>
<path d="M434 209 c-3 -6 -25 -20 -48 -30 -22 -10 -36 -19 -31 -19 13 0 93 29
81 30 -5 0 -3 7 4 15 7 8 10 15 7 15 -3 0 -9 -5 -13 -11z"/>
<path d="M1046 174 c-9 -8 -16 -22 -16 -29 0 -21 29 -45 56 -45 19 0 24 5 24
25 0 15 -6 25 -15 25 -9 0 -12 -6 -9 -15 4 -10 0 -15 -11 -15 -26 0 -15 44 13
48 12 2 20 8 17 13 -9 14 -42 11 -59 -7z"/>
<path d="M1120 145 c0 -25 5 -45 10 -45 6 0 10 20 10 45 0 25 -4 45 -10 45 -5
0 -10 -20 -10 -45z"/>
<path d="M1230 145 c0 -43 1 -45 28 -45 15 0 33 5 40 12 9 9 12 9 12 0 0 -7
13 -12 31 -12 27 0 30 3 27 28 -2 22 -8 27 -33 29 -24 2 -26 1 -11 -6 19 -7
19 -8 -1 -13 -14 -4 -24 0 -27 8 -3 8 -15 14 -26 14 -11 0 -20 7 -20 15 0 8
-4 15 -10 15 -5 0 -10 -20 -10 -45z m50 -16 c0 -5 -7 -9 -15 -9 -15 0 -20 12
-9 23 8 8 24 -1 24 -14z"/>
<path d="M1380 145 c0 -25 5 -45 10 -45 6 0 10 20 10 45 0 25 -4 45 -10 45 -5
0 -10 -20 -10 -45z"/>
<path d="M270 170 c8 -5 20 -10 25 -10 6 0 3 5 -5 10 -8 5 -19 10 -25 10 -5 0
-3 -5 5 -10z"/>
<path d="M1154 146 c-9 -22 15 -48 40 -44 15 2 21 10 21 28 0 20 -6 26 -28 28
-18 2 -29 -2 -33 -12z m46 -17 c0 -5 -7 -9 -15 -9 -15 0 -20 12 -9 23 8 8 24
-1 24 -14z"/>
</g>
</svg>
